<svg xmlns="http://www.w3.org/2000/svg" width="320" height="220" viewBox="0 0 320 220">
  <!-- Gradient background -->
  <rect width="320" height="220" fill="url(#bgGrad)"/>

  <!-- Divetiq logo centered -->
  <g transform="translate(57, 60)">
    <rect width="35" height="35" rx="7" fill="url(#logoBlue)"/>
    <path d="M7.9642 16.601C7.96421 14.4123 9.73845 12.6381 11.9271 12.6381L18.6145 12.6381C18.6145 12.6381 20.5333 15.0161 21.7629 16.5399C21.7629 13.8071 21.7629 9.54208 21.7629 9.54208L27.0356 7.68447L27.0356 17.0963L27.0356 23.3527C27.0356 25.5414 25.2614 27.3156 23.0727 27.3156L15.3946 27.3156L11.9271 27.3156C9.73845 27.3156 7.9642 25.5414 7.9642 23.3527L7.9642 16.601ZM13.9016 16.5399C13.139 16.5399 12.5219 17.1581 12.5219 17.9208L12.5219 21.9902C12.5219 22.7529 13.1402 23.3712 13.9028 23.3712L20.3819 23.3712C21.1446 23.3712 21.7629 22.7543 21.7629 21.9917C21.7629 20.541 21.7629 18.2376 21.7629 16.5399C19.2658 16.5399 15.8 16.5399 13.9016 16.5399Z" fill="url(#logoLight)"/>
    <path d="M172.575 29.0778H168.823V8.26923H172.575V29.0778Z" fill="black"/>
    <path d="M166.261 29.0765H148.099C143.973 29.0765 140.595 25.9561 140.595 22.1464V0.489929L144.347 3.06123V8.26792H163.632L166.261 11.733H144.347V22.1464C144.347 24.0875 145.997 25.6115 148.099 25.6115H163.632L166.261 29.0765Z" fill="black"/>
    <path d="M138.056 28.5879H116.467C112.342 28.5879 108.963 25.4675 108.963 21.6578V13.8568C108.963 10.3191 112.539 7.7793 116.526 7.7793H130.513C134.481 7.7793 138.056 10.3191 138.056 13.8568V19.9161H112.715V21.6578C112.715 23.5989 114.365 25.1228 116.467 25.1228H135.712L138.056 28.5879ZM134.304 16.4511V13.8568C134.304 12.5687 132.831 11.2444 130.513 11.2444H116.526C114.208 11.2444 112.715 12.5687 112.715 13.8568V16.4511H134.304Z" fill="black"/>
    <path d="M95.3893 28.5879H91.1659L78.2598 7.7793H82.5029L93.2874 25.1773L104.052 7.7793H108.295L95.3893 28.5879Z" fill="black"/>
    <path d="M75.9141 28.5879H72.1621V7.7793H75.9141V28.5879Z" fill="black"/>
    <path d="M69.0928 28.5867H47.504C43.3788 28.5867 40 25.4663 40 21.6566V14.7083C40 10.8985 43.3788 7.77811 47.504 7.77811L61.2258 7.77811L65.2057 11.2763L65.3408 0.00012207L69.0928 2.57142V28.5867ZM65.3408 25.1217L65.2057 11.2763L61.2258 11.2763L47.504 11.2432C45.4021 11.2432 43.752 12.7671 43.752 14.7083V21.6566C43.752 23.5977 45.4021 25.1217 47.504 25.1217H65.3408Z" fill="black"/>
    <path d="M204.408 8.33594L182.819 8.33594C178.694 8.33594 175.315 11.4563 175.315 15.2661L175.315 22.2144C175.315 26.0242 178.694 29.1446 182.819 29.1446L196.541 29.1446L200.521 25.6463L200.656 36.9225L204.408 34.3512L204.408 8.33594ZM200.656 11.801L200.521 25.6463L196.541 25.6463L182.819 25.6795C180.717 25.6795 179.067 24.1556 179.067 22.2144L179.067 15.2661C179.067 13.3249 180.717 11.801 182.819 11.801L200.656 11.801Z" fill="black"/>
  </g>

  <!-- Tagline -->
  <text x="160" y="140" text-anchor="middle" font-family="Verdana, Geneva, sans-serif" font-size="20" font-weight="400" fill="#000000">Seamless Apps,</text>
  <text x="160" y="170" text-anchor="middle" font-family="Verdana, Geneva, sans-serif" font-size="20" font-weight="400" fill="#000000">Limitless Possibilities</text>

  <defs>
    <linearGradient id="bgGrad" x1="80" y1="138" x2="375" y2="285" gradientUnits="userSpaceOnUse">
      <stop stop-color="white" stop-opacity="0"/>
      <stop offset="0.81" stop-color="#0136F9" stop-opacity="0.85"/>
    </linearGradient>
    <linearGradient id="logoBlue" x1="17.5" y1="0" x2="17.5" y2="37.1875" gradientUnits="userSpaceOnUse">
      <stop stop-color="#0037FF"/>
      <stop offset="1" stop-color="#002DD1"/>
    </linearGradient>
    <linearGradient id="logoLight" x1="8.70725" y1="20.3162" x2="30.9985" y2="14.9911" gradientUnits="userSpaceOnUse">
      <stop stop-color="#D8EAFF"/>
      <stop offset="1" stop-color="white"/>
    </linearGradient>
  </defs>
</svg>
