<svg width="16" height="16" viewBox="0 0 16 16" fill="none" xmlns="http://www.w3.org/2000/svg">
<path d="M15.2483 7.30169L13.25 5.52547V2.79291L10.9571 0.5H4.75V4.5H2.5C2.30116 4.50025 2.11054 4.57935 1.96994 4.71994C1.82935 4.86054 1.75025 5.05116 1.75 5.25V14.75C1.75025 14.9488 1.82935 15.1395 1.96994 15.2801C2.11054 15.4207 2.30116 15.4998 2.5 15.5H15.5V7.86228C15.5 7.75637 15.4775 7.65166 15.4341 7.55504C15.3907 7.45842 15.3274 7.37208 15.2483 7.30169ZM4.75 14.5H2.75V5.5H4.75V14.5ZM10.25 1.5H10.5429L12.25 3.20709V3.5H10.25V1.5ZM5.75 1.5H9.25V4.5H12.25V6.75H5.75V1.5ZM14.5 14.5H5.75V7.75H13.25V6.86341L14.5 7.97456V14.5Z" fill="#0136F9"/>
<path d="M7.25 10.75H8.25V11.75H7.25V10.75ZM9.25 10.75H10.25V11.75H9.25V10.75ZM7.25 12.75H8.25V13.75H7.25V12.75ZM9.25 12.75H10.25V13.75H9.25V12.75ZM11.25 10.75H12.25V11.75H11.25V10.75ZM11.25 12.75H12.25V13.75H11.25V12.75ZM7.25 8.75H12.25V9.75H7.25V8.75Z" fill="#0136F9"/>
</svg>
