<svg width="16" height="16" viewBox="0 0 16 16" fill="none" xmlns="http://www.w3.org/2000/svg">
<path d="M0.5 7.92857C0.5 5.95839 1.28265 4.06891 2.67578 2.67578C4.06891 1.28265 5.95839 0.5 7.92857 0.5C9.89875 0.5 11.7882 1.28265 13.1814 2.67578C14.5745 4.06891 15.3571 5.95839 15.3571 7.92857C15.3571 9.89875 14.5745 11.7882 13.1814 13.1814C11.7882 14.5745 9.89875 15.3571 7.92857 15.3571C5.95839 15.3571 4.06891 14.5745 2.67578 13.1814C1.28265 11.7882 0.5 9.89875 0.5 7.92857ZM15.3571 7.92857H0.5" stroke="#0136F9" stroke-linecap="round" stroke-linejoin="round"/>
<path d="M7.92855 15.3571C9.64476 13.2467 10.6454 10.6451 10.7857 7.92857C10.6454 5.21201 9.64476 2.61046 7.92855 0.5C6.21235 2.61046 5.21175 5.21201 5.07141 7.92857C5.21175 10.6451 6.21235 13.2467 7.92855 15.3571Z" stroke="#0136F9" stroke-linecap="round" stroke-linejoin="round"/>
</svg>
