<svg width="16" height="16" viewBox="0 0 16 16" fill="none" xmlns="http://www.w3.org/2000/svg">
<path d="M8.48996 13.4607C8.28218 13.3683 8.07762 13.2689 7.87662 13.1627C6.8753 12.5966 5.95574 11.8969 5.14329 11.0827C4.08869 10.09 3.2225 8.91458 2.58662 7.61333C2.24646 6.91403 2.01663 6.16629 1.90529 5.39666C1.75431 4.61934 1.84024 3.81458 2.15196 3.08666C2.34462 2.77333 2.57662 2.48666 2.84196 2.23399C2.94963 2.11322 3.08061 2.01547 3.22702 1.94661C3.37344 1.87776 3.53227 1.83923 3.69396 1.83333C4.03062 1.88399 4.33529 2.05999 4.54596 2.32799C5.00596 2.83933 5.49929 3.29933 5.98529 3.78533C6.17662 3.94933 6.29596 4.182 6.31729 4.43333C6.30929 4.64466 6.22796 4.84666 6.08729 5.00466C5.92596 5.20933 5.72996 5.39666 5.54262 5.59266C5.42968 5.70185 5.3433 5.83551 5.29013 5.98333C5.23696 6.13116 5.21843 6.28921 5.23596 6.44533C5.35356 6.81036 5.55466 7.14295 5.82329 7.41666C6.14729 7.86 6.47062 8.26999 6.83662 8.70399C7.49492 9.4643 8.27513 10.1098 9.14529 10.614C9.26565 10.7047 9.40788 10.762 9.55754 10.7799C9.70719 10.7978 9.85892 10.7758 9.99729 10.716C10.287 10.5547 10.544 10.3408 10.7553 10.0853C10.9386 9.862 11.2013 9.71866 11.488 9.68466C11.7433 9.698 11.984 9.80733 12.1613 9.99133C12.3906 10.1873 12.5866 10.418 12.8 10.6307C13.0126 10.844 13.1833 10.9973 13.362 11.1933C13.5762 11.3822 13.7777 11.584 13.9666 11.7987C14.1133 11.988 14.1826 12.2253 14.1626 12.4633C14.0866 12.7482 13.9226 13.0018 13.694 13.188C13.3725 13.5225 12.9819 13.7828 12.5494 13.9507C12.1169 14.1186 11.6529 14.19 11.19 14.16C10.2527 14.1068 9.33517 13.8692 8.48996 13.4607Z" stroke="#0136F9" stroke-miterlimit="10" stroke-linecap="round"/>
</svg>
